<svg xmlns="http://www.w3.org/2000/svg" xmlns:xlink="http://www.w3.org/1999/xlink" contentStyleType="text/css" data-diagram-type="DESCRIPTION" height="959px" preserveAspectRatio="none" style="width:988px;height:959px;background:#FFFFFF;" version="1.1" viewBox="0 0 988 959" width="988px" zoomAndPan="magnify"><title>NexusOps - Actor, role v&#224; truy c&#7853;p t&#224;i kho&#7843;n</title><defs/><g><text fill="#000000" font-family="Arial" font-size="14" font-weight="bold" lengthAdjust="spacing" textLength="294.8613" x="339.8379" y="23.1318">NexusOps - Actor, role v&#224; truy c&#7853;p t&#224;i kho&#7843;n</text><!--cluster NexusOps - truy c?p t?i kho?n--><g class="cluster" data-entity="NexusOps - truy c&#7853;p t&#224;i kho&#7843;n" data-source-line="29" data-uid="ent0014" id="cluster_NexusOps - truy c&#7853;p t&#224;i kho&#7843;n"><rect fill="none" height="281" rx="2.5" ry="2.5" style="stroke:#181818;stroke-width:1;" width="287" x="685" y="357.5986"/><text fill="#000000" font-family="Arial" font-size="14" font-weight="bold" lengthAdjust="spacing" textLength="201.4961" x="727.752" y="372.7305">NexusOps - truy c&#7853;p t&#224;i kho&#7843;n</text></g><g class="entity" data-entity="Register" data-source-line="30" data-uid="ent0015" id="entity_Register"><ellipse cx="828.3023" cy="594.4591" fill="#EFF6FF" rx="127.3023" ry="27.8605" style="stroke:#2563EB;stroke-width:0.5;"/><text fill="#000000" font-family="Arial" font-size="14" lengthAdjust="spacing" textLength="176.9551" x="736.8248" y="590.2257">&#272;&#259;ng k&#253; b&#7857;ng l&#7901;i m&#7901;i h&#7907;p l&#7879;</text><text fill="#000000" font-family="Arial" font-size="14" lengthAdjust="spacing" textLength="40.4551" x="805.0748" y="606.3243">UC-01</text></g><g class="entity" data-entity="Login" data-source-line="31" data-uid="ent0016" id="entity_Login"><ellipse cx="828.4242" cy="505.3655" fill="#EFF6FF" rx="59.9242" ry="25.7669" style="stroke:#2563EB;stroke-width:0.5;"/><text fill="#000000" font-family="Arial" font-size="14" lengthAdjust="spacing" textLength="68.5029" x="794.1727" y="500.3987">&#272;&#259;ng nh&#7853;p</text><text fill="#000000" font-family="Arial" font-size="14" lengthAdjust="spacing" textLength="40.4551" x="808.1966" y="516.4974">UC-01</text></g><g class="entity" data-entity="Logout" data-source-line="32" data-uid="ent0017" id="entity_Logout"><ellipse cx="828.6131" cy="418.3655" fill="#EFF6FF" rx="56.6131" ry="25.7669" style="stroke:#2563EB;stroke-width:0.5;"/><text fill="#000000" font-family="Arial" font-size="14" lengthAdjust="spacing" textLength="63.8203" x="796.7029" y="413.3987">&#272;&#259;ng xu&#7845;t</text><text fill="#000000" font-family="Arial" font-size="14" lengthAdjust="spacing" textLength="40.4551" x="808.3855" y="429.4974">UC-01</text></g><!--entity User--><g class="entity" data-entity="User" data-source-line="14" data-uid="ent0002" id="entity_User"><ellipse cx="537.9897" cy="422.0986" fill="#F1F1F1" rx="8" ry="8" style="stroke:#334155;stroke-width:0.5;"/><path d="M537.9897,430.0986 L537.9897,457.0986 M524.9897,438.0986 L550.9897,438.0986 M537.9897,457.0986 L524.9897,472.0986 M537.9897,457.0986 L550.9897,472.0986" fill="none" style="stroke:#334155;stroke-width:0.5;"/><text fill="#000000" font-family="Arial" font-size="14" lengthAdjust="spacing" textLength="153.9795" x="461" y="486.7305">Ng&#432;&#7901;i d&#249;ng c&#243; t&#224;i kho&#7843;n</text></g><!--entity Invitee--><g class="entity" data-entity="Invitee" data-source-line="15" data-uid="ent0003" id="entity_Invitee"><ellipse cx="537.8154" cy="565.0986" fill="#F1F1F1" rx="8" ry="8" style="stroke:#334155;stroke-width:0.5;"/><path d="M537.8154,573.0986 L537.8154,600.0986 M524.8154,581.0986 L550.8154,581.0986 M537.8154,600.0986 L524.8154,615.0986 M537.8154,600.0986 L550.8154,615.0986" fill="none" style="stroke:#334155;stroke-width:0.5;"/><text fill="#000000" font-family="Arial" font-size="14" lengthAdjust="spacing" textLength="104.6309" x="485.5" y="629.7305">Ng&#432;&#7901;i &#273;&#432;&#7907;c m&#7901;i</text></g><!--entity Admin--><g class="entity" data-entity="Admin" data-source-line="16" data-uid="ent0004" id="entity_Admin"><ellipse cx="203.3789" cy="287.0986" fill="#F1F1F1" rx="8" ry="8" style="stroke:#334155;stroke-width:0.5;"/><path d="M203.3789,295.0986 L203.3789,322.0986 M190.3789,303.0986 L216.3789,303.0986 M203.3789,322.0986 L190.3789,337.0986 M203.3789,322.0986 L216.3789,337.0986" fill="none" style="stroke:#334155;stroke-width:0.5;"/><text fill="#000000" font-family="Arial" font-size="14" lengthAdjust="spacing" textLength="137.7578" x="134.5" y="351.7305">Qu&#7843;n tr&#7883; vi&#234;n h&#7879; th&#7889;ng</text><text fill="#000000" font-family="Arial" font-size="14" lengthAdjust="spacing" textLength="122.1172" x="134.5" y="367.8291">ACCOUNT_ADMIN</text></g><!--entity Manager--><g class="entity" data-entity="Manager" data-source-line="17" data-uid="ent0005" id="entity_Manager"><ellipse cx="203.731" cy="414.0986" fill="#F1F1F1" rx="8" ry="8" style="stroke:#334155;stroke-width:0.5;"/><path d="M203.731,422.0986 L203.731,449.0986 M190.731,430.0986 L216.731,430.0986 M203.731,449.0986 L190.731,464.0986 M203.731,449.0986 L216.731,464.0986" fill="none" style="stroke:#334155;stroke-width:0.5;"/><text fill="#000000" font-family="Arial" font-size="14" lengthAdjust="spacing" textLength="87.1582" x="145" y="478.7305">Qu&#7843;n l&#253; nh&#243;m</text><text fill="#000000" font-family="Arial" font-size="14" lengthAdjust="spacing" textLength="117.4619" x="145" y="494.8291">TEAM_MANAGER</text></g><!--entity Responder--><g class="entity" data-entity="Responder" data-source-line="18" data-uid="ent0006" id="entity_Responder"><ellipse cx="203.3794" cy="541.0986" fill="#F1F1F1" rx="8" ry="8" style="stroke:#334155;stroke-width:0.5;"/><path d="M203.3794,549.0986 L203.3794,576.0986 M190.3794,557.0986 L216.3794,557.0986 M203.3794,576.0986 L190.3794,591.0986 M203.3794,576.0986 L216.3794,591.0986" fill="none" style="stroke:#334155;stroke-width:0.5;"/><text fill="#000000" font-family="Arial" font-size="14" lengthAdjust="spacing" textLength="112.7588" x="147" y="605.7305">Ng&#432;&#7901;i x&#7917; l&#253; s&#7921; c&#7889;</text><text fill="#000000" font-family="Arial" font-size="14" lengthAdjust="spacing" textLength="88.6826" x="147" y="621.8291">RESPONDER</text></g><!--entity Viewer--><g class="entity" data-entity="Viewer" data-source-line="19" data-uid="ent0007" id="entity_Viewer"><ellipse cx="203.4487" cy="668.0986" fill="#F1F1F1" rx="8" ry="8" style="stroke:#334155;stroke-width:0.5;"/><path d="M203.4487,676.0986 L203.4487,703.0986 M190.4487,684.0986 L216.4487,684.0986 M203.4487,703.0986 L190.4487,718.0986 M203.4487,703.0986 L216.4487,718.0986" fill="none" style="stroke:#334155;stroke-width:0.5;"/><text fill="#000000" font-family="Arial" font-size="14" lengthAdjust="spacing" textLength="69.8975" x="168.5" y="732.7305">Ng&#432;&#7901;i xem</text><text fill="#000000" font-family="Arial" font-size="14" lengthAdjust="spacing" textLength="55.2275" x="168.5" y="748.8291">VIEWER</text></g><!--entity Commander--><g class="entity" data-entity="Commander" data-source-line="20" data-uid="ent0008" id="entity_Commander"><ellipse cx="203.4688" cy="51.0986" fill="#F1F1F1" rx="8" ry="8" style="stroke:#334155;stroke-width:0.5;"/><path d="M203.4688,59.0986 L203.4688,86.0986 M190.4688,67.0986 L216.4688,67.0986 M203.4688,86.0986 L190.4688,101.0986 M203.4688,86.0986 L216.4688,101.0986" fill="none" style="stroke:#334155;stroke-width:0.5;"/><text fill="#000000" font-family="Arial" font-size="14" lengthAdjust="spacing" textLength="126.7451" x="117.5" y="115.7305">Ng&#432;&#7901;i ch&#7881; huy s&#7921; c&#7889;</text><text fill="#000000" font-family="Arial" font-size="14" lengthAdjust="spacing" textLength="171.9375" x="117.5" y="131.8291">COMMANDER c&#7911;a incident</text></g><g class="entity" data-entity="GMN21" data-source-line="40" data-uid="ent0022" id="entity_GMN21"><path d="M675,299.5986 L675,341.7959 L981.5371,341.7959 L981.5371,309.5986 L971.5371,299.5986 L675,299.5986" fill="#FFFBEA" style="stroke:#C4AD65;stroke-width:0.5;"/><path d="M971.5371,299.5986 L971.5371,309.5986 L981.5371,309.5986 L971.5371,299.5986" fill="#FFFBEA" style="stroke:#C4AD65;stroke-width:1;"/><text fill="#000000" font-family="Arial" font-size="14" lengthAdjust="spacing" textLength="283.2197" x="681" y="317.7305">Invitation h&#7907;p l&#7879;, ch&#432;a d&#249;ng v&#224; ch&#432;a h&#7871;t h&#7841;n.</text><text fill="#000000" font-family="Arial" font-size="14" lengthAdjust="spacing" textLength="285.5371" x="681" y="333.8291">Ng&#432;&#7901;i &#273;&#259;ng k&#253; kh&#244;ng t&#7921; ch&#7885;n role &#273;&#7863;c quy&#7873;n.</text></g><g class="entity" data-entity="GMN24" data-source-line="45" data-uid="ent0025" id="entity_GMN24"><path d="M6,169.5986 L6,243.9932 A0,0 0 0 0 6,243.9932 L401.418,243.9932 A0,0 0 0 0 401.418,243.9932 L401.418,179.5986 L391.418,169.5986 L207.5,169.5986 L203.5,134.5986 L199.5,169.5986 L6,169.5986 A0,0 0 0 0 6,169.5986" fill="#FFFBEA" style="stroke:#C4AD65;stroke-width:0.5;"/><path d="M391.418,169.5986 L391.418,179.5986 L401.418,179.5986 L391.418,169.5986" fill="#FFFBEA" style="stroke:#C4AD65;stroke-width:0.5;"/><text fill="#000000" font-family="Arial" font-size="14" lengthAdjust="spacing" textLength="250.585" x="12" y="187.7305">Actor nghi&#7879;p v&#7909; tr&#234;n m&#7897;t incident c&#7909; th&#7875;.</text><text fill="#000000" font-family="Arial" font-size="14" lengthAdjust="spacing" textLength="304.1855" x="12" y="203.8291">Ng&#432;&#7901;i gi&#7919; vai tr&#242; n&#224;y v&#7851;n c&#243; role t&#224;i kho&#7843;n ri&#234;ng.</text><text fill="#000000" font-family="Arial" font-size="14" lengthAdjust="spacing" textLength="374.418" x="12" y="219.9277">K&#7871; th&#7915;a User ch&#7881; bi&#7875;u di&#7877;n kh&#7843; n&#259;ng &#273;&#259;ng nh&#7853;p / &#273;&#259;ng xu&#7845;t;</text><text fill="#000000" font-family="Arial" font-size="14" lengthAdjust="spacing" textLength="291.1221" x="12" y="236.0264">kh&#244;ng t&#7921; c&#7845;p permission x&#7917; l&#253; ho&#7863;c ph&#234; duy&#7879;t.</text></g><!--link Admin to User--><g class="link" data-entity-1="Admin" data-entity-2="User" data-source-line="23" data-uid="lnk9" id="link_Admin_User"><path d="M272.56,344.0486 C310.74,355.5386 359,371.0586 401,387.5986 C420.67,395.3386 425.1963,396.9605 444.4963,405.9905" fill="none" id="Admin-to-User" style="stroke:#181818;stroke-width:1;"/><polygon fill="none" points="460.8,413.6186,447.039,400.5559,441.9536,411.4251,460.8,413.6186" style="stroke:#181818;stroke-width:1;"/></g><!--link Manager to User--><g class="link" data-entity-1="Manager" data-entity-2="User" data-source-line="24" data-uid="lnk10" id="link_Manager_User"><path d="M262.04,451.5986 C317.06,451.5986 382.36,451.5986 442.85,451.5986" fill="none" id="Manager-to-User" style="stroke:#181818;stroke-width:1;"/><polygon fill="none" points="460.85,451.5986,442.85,445.5986,442.85,457.5986,460.85,451.5986" style="stroke:#181818;stroke-width:1;"/></g><!--link Responder to User--><g class="link" data-entity-1="Responder" data-entity-2="User" data-source-line="25" data-uid="lnk11" id="link_Responder_User"><path d="M260.18,562.3986 C299.86,550.3886 354.25,532.9686 401,514.5986 C420.62,506.8886 425.0925,505.2925 444.3825,496.4025" fill="none" id="Responder-to-User" style="stroke:#181818;stroke-width:1;"/><polygon fill="none" points="460.73,488.8686,441.8712,490.9534,446.8938,501.8517,460.73,488.8686" style="stroke:#181818;stroke-width:1;"/></g><!--link Viewer to User--><g class="link" data-entity-1="Viewer" data-entity-2="User" data-source-line="26" data-uid="lnk12" id="link_Viewer_User"><path d="M238.6,702.1986 C280.83,696.4286 353.04,681.2886 401,642.5986 C442.53,609.0886 429.97,582.0086 461,538.5986 C473.01,521.7986 475.6508,517.8368 488.8708,503.0768" fill="none" id="Viewer-to-User" style="stroke:#181818;stroke-width:1;"/><polygon fill="none" points="500.88,489.6686,484.4014,499.0737,493.3402,507.0799,500.88,489.6686" style="stroke:#181818;stroke-width:1;"/></g><!--link Commander to User--><g class="link" data-entity-1="Commander" data-entity-2="User" data-source-line="27" data-uid="lnk13" id="link_Commander_User"><path d="M289.67,99.9386 C327.46,108.6986 370.24,124.1986 401,151.5986 C480.85,222.7286 512.8694,332.4116 526.3494,395.8616" fill="none" id="Commander-to-User" style="stroke:#181818;stroke-width:1;"/><polygon fill="none" points="530.09,413.4686,532.2184,394.6147,520.4804,397.1085,530.09,413.4686" style="stroke:#181818;stroke-width:1;"/></g><!--link Invitee to Register--><g class="link" data-entity-1="Invitee" data-entity-2="Register" data-source-line="35" data-uid="lnk18" id="link_Invitee_Register"><path d="M590.58,594.5986 C621.37,594.5986 661.94,594.5986 700.78,594.5986" fill="none" id="Invitee-Register" style="stroke:#181818;stroke-width:1;"/></g><!--link User to Login--><g class="link" data-entity-1="User" data-entity-2="Login" data-source-line="36" data-uid="lnk19" id="link_User_Login"><path d="M615.18,465.8586 C664.76,475.1386 728.26,487.0286 772.85,495.3686" fill="none" id="User-Login" style="stroke:#181818;stroke-width:1;"/></g><!--link User to Logout--><g class="link" data-entity-1="User" data-entity-2="Logout" data-source-line="37" data-uid="lnk20" id="link_User_Logout"><path d="M615.18,442.8886 C664.93,437.1986 728.69,429.8986 773.3,424.7986" fill="none" id="User-Logout" style="stroke:#181818;stroke-width:1;"/></g><!--link Register to GMN21--><g class="link" data-entity-1="Register" data-entity-2="GMN21" data-source-line="40" data-uid="lnk23" id="link_Register_GMN21"><path d="M714.71,581.8486 C686.38,572.5386 659.86,556.9686 645,531.0986 C614.67,478.2986 614.67,446.8986 645,394.0986 C659.36,369.0986 684.05,352.5986 710.75,341.6986" fill="none" id="Register-GMN21" style="stroke:#181818;stroke-width:1;stroke-dasharray:7.0,7.0;"/></g><rect fill="none" height="170.9863" rx="7.5" ry="7.5" style="stroke:#000000;stroke-width:1;" width="594.9922" x="189.7725" y="768.3291"/><text fill="#000000" font-family="Arial" font-size="14" font-weight="bold" lengthAdjust="spacing" textLength="299.3525" x="194.7725" y="786.4609">Role t&#224;i kho&#7843;n &#273;&#432;&#7907;c seed trong MVP (UC-02)</text><text fill="#000000" font-family="Arial" font-size="14" lengthAdjust="spacing" textLength="451.9717" x="194.7725" y="802.5596">ACCOUNT_ADMIN: to&#224;n b&#7897; 6 permission &#273;ang &#273;&#432;&#7907;c khai b&#225;o trong M1.</text><text fill="#000000" font-family="Arial" font-size="14" lengthAdjust="spacing" textLength="259.0547" x="194.7725" y="818.6582">TEAM_MANAGER: SERVICE_MANAGE.</text><text fill="#000000" font-family="Arial" font-size="14" lengthAdjust="spacing" textLength="584.9922" x="194.7725" y="834.7568">RESPONDER: INCIDENT_ACK, INCIDENT_RESOLVE, AUTOMATION_EXECUTE, AI_RUN.</text><text fill="#000000" font-family="Arial" font-size="14" lengthAdjust="spacing" textLength="431.2041" x="194.7725" y="850.8555">VIEWER: &#273;&#227; c&#243; role, nh&#432;ng seed M1 ch&#432;a khai b&#225;o grant &#273;&#7885;c c&#7909; th&#7875;.</text><text fill="#000000" font-family="Arial" font-size="14" lengthAdjust="spacing" textLength="302.7432" x="194.7725" y="866.9541">user_roles cho ph&#233;p m&#7897;t t&#224;i kho&#7843;n c&#243; nhi&#7873;u role.</text><text fill="#000000" font-family="Arial" font-size="14" font-weight="bold" lengthAdjust="spacing" textLength="112.0205" x="194.7725" y="883.0527">Ph&#7841;m vi (UC-03):</text><text fill="#000000" font-family="Arial" font-size="14" lengthAdjust="spacing" textLength="416.3018" x="310.6826" y="883.0527">m&#7897;t organization / team, v&#7851;n ki&#7875;m tra membership v&#224; object scope.</text><text fill="#000000" font-family="Arial" font-size="14" font-weight="bold" lengthAdjust="spacing" textLength="105.7861" x="194.7725" y="899.1514">Vai tr&#242; incident:</text><text fill="#000000" font-family="Arial" font-size="14" lengthAdjust="spacing" textLength="363.3438" x="304.4482" y="899.1514">RESPONDER / COMMANDER trong incident_responders.</text><text fill="#000000" font-family="Arial" font-size="14" lengthAdjust="spacing" textLength="538.5762" x="194.7725" y="915.25">C&#243; permission ch&#432;a &#273;&#7911;: c&#225;c thao t&#225;c c&#242;n ph&#7843;i th&#7887;a m&#227;n &#273;i&#7873;u ki&#7879;n c&#7911;a incident / action.</text><text fill="#000000" font-family="Arial" font-size="14" lengthAdjust="spacing" textLength="570.2197" x="194.7725" y="931.3486">Refresh token l&#224; c&#417; ch&#7871; c&#7911;a phi&#234;n &#273;&#259;ng nh&#7853;p, kh&#244;ng t&#225;ch th&#224;nh m&#7909;c ti&#234;u ng&#432;&#7901;i d&#249;ng ri&#234;ng.</text><!--SRC=[TLRVQ-D647xNNp7a7jeBJgwv_7XmeQ0eSZ5tjbCdTliGC6jf8srjxQhIEZ-kxSCHIYZbQFDGob4A2I4STyVHt5sXDARqGMd-3_qddLt9ZcodBuvsDVFDp3VVZDAdknAaW8XvlWINHTIHJ733a4psATJfmI1kX34iWEb84PKW4dYzbvo2Z0Q7uAHNRqAGoIc3dY_IgtDkn3t6GnAH05owImPzMH5Srab0mOmOwT_zVeizeR2qKdWP-yGL-unxi4lwCIsywHAdvqLYm5rBz4K4-pwJnVT49Rek8fT6cS6zvUMLfTNLWiaWfWw9wVeKqZsxKbchLEumBA8zN5rRjjSBHbp8MQXAfR9kczDMHHnhnTnOMpKCdI_CrRsRotJu6mCt-GkhTfBt4xpE0OcX5TDenlxwH3sSEn2eexQhyZtaX8vCFnie1EnOElm1zbZoYeEV3ez1uky9ztQuQLcDLdsxOsxKgdMDOBe1urF-_UHlu7xoFjZXsxPPwzJCklcftTJsDSA9TqTo1-dmZNQCq-5RbClmP8StxQtDHdqZzspIE1JSlSkNOgHsrVuyjsmpkd-7cODLV0y-gh4GmshKC3sCeSul233kC9TogO4i4GH4XpG-WDg_BnaoZPn8x9B7aZC7aAXVi0U-Yl0hFaZymp9XgUUVyUghGN8c5mtD4omiVFD9rfoSXyBDkBx2NLP9uMASKU7EKBD8k8VpDbUOm_-Pkpduse2HNc7k-gVh8yooXyntqwkt-DZNP6cDgEwVX-hcU8Uth8MFbl9EU2oM67aMX_igOD7uiV1G8BEM1wYL2pbbAGRI-DOmSbbYZRUnLAdg8iChd9IFeOO6ka9A4O3OBMQeiOZQLOLgIYY6cqkIZv3QKjaPi_z7gjypleY-XT4PizJpap-oJh_LYdh6irLtVP9U_UbWkm_JuLFqfjpLepoJswse8DkLm3sVOL8XxAN32-oRqXZo_roErQZ4UQ77y6WYBm_zVeSzmfJNE-39wI62NBtcUYtel8gzn-sDs9w2U8ILQi3NHAieduuk0XuDSB-dm-yukg4NS5rxJa7MO7WmEcTj_1WH9uZ1on126WKiZXNru_5MYI1DeP-y0bTnTIoBNFMffmuPMmWwFz-SAMAyns9ANInSODHQUnC-L59wU7z-NX5RN5Hb_70bfnm5FdmEQyMqha-8BYq7xFd8P3Sv4oFK9KLLSOULOSjkjgkMdL-ez-CrLOPgtQfks2gkzQXqUqABnkEsNGApjTsecTlLHhrZVs5RhMrrL-qqMtK5bAsmCkQJd8yRM4BARoun6LrjRIbNwcsgNaHG82Y_uJDdIYSuSr57WSJe9HJfByDSMHECgbXSQV3fGCTSrCnlgZa8y3kGCRjylpm_dtkBo2ESFSd6wW58Ie9IBhoUKb201188QD2bKUopK8-Ow7w9YmfYHuHvXFP8k2ETgmXZEX7uTZjd3HdPTQBHiemLaeNv5xgQCQGOUL76sd1FIvzWJzMJaxpZI0IMpJHFFsAQYHPLLhvA_vXFVGmm4wB_tT7jfhiOtKTDzQZwrk7kk3bJuuC3bRc5llvqJanCQJmVc0Kw-oX8Nx5vWTcX-G2tmCHtVJIgE0xPKFm7]--></g></svg>